<svg width="760" height="56" viewBox="0 0 760 56" xmlns="http://www.w3.org/2000/svg">
  <style>
    @keyframes lumi-t-badge   { 0%, 100% { opacity: .1; } 50% { opacity: .2; } }
    @keyframes lumi-t-shutter { 0%, 92%, 100% { transform: scale(1); } 96% { transform: scale(0.75); } }
    .lumi-t-badge { animation: lumi-t-badge 3s ease-in-out infinite; }
    .lumi-t-icon { animation: lumi-t-shutter 2.6s ease-in-out infinite; transform-origin: 12px 13px; }
    @media (prefers-reduced-motion: reduce) {
      .lumi-t-badge, .lumi-t-icon { animation: none !important; }
    }
  </style>
  <rect width="760" height="56" rx="12" fill="#14171a"/>
  <rect x="0.5" y="0.5" width="759" height="55" rx="11.5" fill="none" stroke="#2a2d31"/>
  <circle class="lumi-t-badge" cx="34" cy="28" r="16" fill="#f2c94c"/>
  <g transform="translate(25,19) scale(0.75)" stroke="#f2c94c" stroke-width="1.8" fill="none" stroke-linecap="round" stroke-linejoin="round">
    <path d="M4 8a2 2 0 0 1 2-2h1.5l1-2h7l1 2H18a2 2 0 0 1 2 2v9a2 2 0 0 1-2 2H6a2 2 0 0 1-2-2V8Z"/>
    <circle class="lumi-t-icon" cx="12" cy="13" r="3.4"/>
  </g>
  <text x="66" y="35" font-family="ui-monospace, SFMono-Regular, Menlo, monospace" font-size="20" font-weight="600" fill="#e8e8e6">Qué hace, en capturas reales</text>
</svg>
